<mxfile host="app.diagrams.net" modified="2021-01-12T10:05:09.424Z" agent="5.0 (Windows NT 10.0; Win64; x64) AppleWebKit/537.36 (KHTML, like Gecko) Chrome/87.0.4280.141 Safari/537.36 Edg/87.0.664.75" etag="al6z9Bjl_tYr2mDCGPG4" version="14.1.9" type="github">
  <diagram name="Page-1" id="2c0d36ab-eaac-3732-788b-9136903baeff">
    <mxGraphModel dx="1038" dy="548" grid="1" gridSize="10" guides="1" tooltips="1" connect="1" arrows="1" fold="1" page="1" pageScale="1.5" pageWidth="1169" pageHeight="827" background="#ffffff" math="0" shadow="0">
      <root>
        <mxCell id="0" />
        <mxCell id="1" parent="0" />
        <mxCell id="123" value="" style="fillColor=#AE4132;strokeColor=none;opacity=30;" parent="1" vertex="1">
          <mxGeometry x="747" y="175.5" width="210" height="104.5" as="geometry" />
        </mxCell>
        <mxCell id="122" value="" style="fillColor=#10739E;strokeColor=none;opacity=30;" parent="1" vertex="1">
          <mxGeometry x="142" y="325.5" width="1470" height="99.99999999999994" as="geometry" />
        </mxCell>
        <mxCell id="110" value="" style="fillColor=#12AAB5;strokeColor=none;opacity=30;" parent="1" vertex="1">
          <mxGeometry x="1207" y="440" width="523" height="85.5" as="geometry" />
        </mxCell>
        <mxCell id="109" value="" style="fillColor=#12AAB5;strokeColor=none;opacity=30;" parent="1" vertex="1">
          <mxGeometry x="407" y="442.75" width="783" height="80" as="geometry" />
        </mxCell>
        <mxCell id="2" value="Main Dashboard" style="rounded=1;fillColor=#23445D;gradientColor=none;strokeColor=none;fontColor=#FFFFFF;fontStyle=1;fontFamily=Tahoma;fontSize=14" parent="1" vertex="1">
          <mxGeometry x="758" y="195.5" width="190" height="80" as="geometry" />
        </mxCell>
        <mxCell id="4" value="Phần user" style="rounded=1;fillColor=#23445D;gradientColor=none;strokeColor=none;fontColor=#FFFFFF;fontStyle=1;fontFamily=Tahoma;fontSize=14" parent="1" vertex="1">
          <mxGeometry x="1361.9999999999998" y="335.5" width="190" height="80" as="geometry" />
        </mxCell>
        <mxCell id="9" value="" style="edgeStyle=elbowEdgeStyle;elbow=vertical;strokeWidth=2;rounded=0" parent="1" source="2" target="4" edge="1">
          <mxGeometry x="337" y="215.5" width="100" height="100" as="geometry">
            <mxPoint x="337" y="315.5" as="sourcePoint" />
            <mxPoint x="437" y="215.5" as="targetPoint" />
          </mxGeometry>
        </mxCell>
        <mxCell id="12" value="Phần menu" style="rounded=1;fillColor=#23445D;gradientColor=none;strokeColor=none;fontColor=#FFFFFF;fontStyle=1;fontFamily=Tahoma;fontSize=14" parent="1" vertex="1">
          <mxGeometry x="756.9999999999999" y="335.5" width="190" height="80" as="geometry" />
        </mxCell>
        <mxCell id="13" value="Phần thông báo" style="rounded=1;fillColor=#23445D;gradientColor=none;strokeColor=none;fontColor=#FFFFFF;fontStyle=1;fontFamily=Tahoma;fontSize=14" parent="1" vertex="1">
          <mxGeometry x="107" y="335.5" width="190" height="80" as="geometry" />
        </mxCell>
        <mxCell id="25" value="DASHBOARD" style="rounded=1;fillColor=#23445D;gradientColor=none;strokeColor=none;fontColor=#FFFFFF;fontStyle=1;fontFamily=Tahoma;fontSize=14" parent="1" vertex="1">
          <mxGeometry x="417" y="455.5" width="130" height="60" as="geometry" />
        </mxCell>
        <mxCell id="29" value="NETWORK" style="rounded=1;fillColor=#23445D;gradientColor=none;strokeColor=none;fontColor=#FFFFFF;fontStyle=1;fontFamily=Tahoma;fontSize=14" parent="1" vertex="1">
          <mxGeometry x="592" y="455.5" width="130" height="60" as="geometry" />
        </mxCell>
        <mxCell id="30" value="Solarwind" style="rounded=1;fillColor=#23445D;gradientColor=none;strokeColor=none;fontColor=#FFFFFF;fontStyle=1;fontFamily=Tahoma;fontSize=14" parent="1" vertex="1">
          <mxGeometry x="592" y="545.5" width="130" height="60" as="geometry" />
        </mxCell>
        <mxCell id="31" value="Dashbard" style="rounded=1;fillColor=#23445D;gradientColor=none;strokeColor=none;fontColor=#FFFFFF;fontStyle=1;fontFamily=Tahoma;fontSize=14" parent="1" vertex="1">
          <mxGeometry x="592" y="635.5" width="130" height="60" as="geometry" />
        </mxCell>
        <mxCell id="32" value="Thanh Menu" style="rounded=1;fillColor=#23445D;gradientColor=none;strokeColor=none;fontColor=#FFFFFF;fontStyle=1;fontFamily=Tahoma;fontSize=14" parent="1" vertex="1">
          <mxGeometry x="592" y="725.5" width="130" height="60" as="geometry" />
        </mxCell>
        <mxCell id="33" value="APPLICATION" style="rounded=1;fillColor=#23445D;gradientColor=none;strokeColor=none;fontColor=#FFFFFF;fontStyle=1;fontFamily=Tahoma;fontSize=14" parent="1" vertex="1">
          <mxGeometry x="767" y="455.5" width="130" height="60" as="geometry" />
        </mxCell>
        <mxCell id="34" value="Centreon" style="rounded=1;fillColor=#23445D;gradientColor=none;strokeColor=none;fontColor=#FFFFFF;fontStyle=1;fontFamily=Tahoma;fontSize=14" parent="1" vertex="1">
          <mxGeometry x="767" y="545.5" width="130" height="60" as="geometry" />
        </mxCell>
        <mxCell id="35" value="Dashboard" style="rounded=1;fillColor=#23445D;gradientColor=none;strokeColor=none;fontColor=#FFFFFF;fontStyle=1;fontFamily=Tahoma;fontSize=14" parent="1" vertex="1">
          <mxGeometry x="767" y="635.5" width="130" height="60" as="geometry" />
        </mxCell>
        <mxCell id="36" value="Thanh menu" style="rounded=1;fillColor=#23445D;gradientColor=none;strokeColor=none;fontColor=#FFFFFF;fontStyle=1;fontFamily=Tahoma;fontSize=14" parent="1" vertex="1">
          <mxGeometry x="767" y="725.5" width="130" height="60" as="geometry" />
        </mxCell>
        <mxCell id="37" value="CA Service Desk" style="rounded=1;fillColor=#23445D;gradientColor=none;strokeColor=none;fontColor=#FFFFFF;fontStyle=1;fontFamily=Tahoma;fontSize=14" parent="1" vertex="1">
          <mxGeometry x="920" y="545.5" width="130" height="60" as="geometry" />
        </mxCell>
        <mxCell id="38" value="Dashboard" style="rounded=1;fillColor=#23445D;gradientColor=none;strokeColor=none;fontColor=#FFFFFF;fontStyle=1;fontFamily=Tahoma;fontSize=14" parent="1" vertex="1">
          <mxGeometry x="920" y="640" width="130" height="60" as="geometry" />
        </mxCell>
        <mxCell id="39" value="Thanh Menu" style="rounded=1;fillColor=#23445D;gradientColor=none;strokeColor=none;fontColor=#FFFFFF;fontStyle=1;fontFamily=Tahoma;fontSize=14" parent="1" vertex="1">
          <mxGeometry x="920" y="720" width="130" height="60" as="geometry" />
        </mxCell>
        <mxCell id="44" value="Tạo" style="rounded=1;fillColor=#23445D;gradientColor=none;strokeColor=none;fontColor=#FFFFFF;fontStyle=1;fontFamily=Tahoma;fontSize=14" parent="1" vertex="1">
          <mxGeometry x="1217" y="455.50000000000006" width="130" height="60" as="geometry" />
        </mxCell>
        <mxCell id="48" value="Phân quyền" style="rounded=1;fillColor=#23445D;gradientColor=none;strokeColor=none;fontColor=#FFFFFF;fontStyle=1;fontFamily=Tahoma;fontSize=14" parent="1" vertex="1">
          <mxGeometry x="1392" y="455.50000000000006" width="130" height="60" as="geometry" />
        </mxCell>
        <mxCell id="52" value="Sửa, xóa, khóa user" style="rounded=1;fillColor=#23445D;gradientColor=none;strokeColor=none;fontColor=#FFFFFF;fontStyle=1;fontFamily=Tahoma;fontSize=14" parent="1" vertex="1">
          <mxGeometry x="1567" y="455.5" width="153" height="64.5" as="geometry" />
        </mxCell>
        <mxCell id="59" value="" style="edgeStyle=elbowEdgeStyle;elbow=vertical;strokeWidth=2;rounded=0" parent="1" source="2" target="12" edge="1">
          <mxGeometry x="347" y="225.5" width="100" height="100" as="geometry">
            <mxPoint x="861.9999999999999" y="275.5" as="sourcePoint" />
            <mxPoint x="1466.9999999999998" y="345.5" as="targetPoint" />
          </mxGeometry>
        </mxCell>
        <mxCell id="61" value="" style="edgeStyle=elbowEdgeStyle;elbow=vertical;strokeWidth=2;rounded=0" parent="1" source="2" target="13" edge="1">
          <mxGeometry x="-23" y="135.5" width="100" height="100" as="geometry">
            <mxPoint x="-23" y="235.5" as="sourcePoint" />
            <mxPoint x="77" y="135.5" as="targetPoint" />
          </mxGeometry>
        </mxCell>
        <mxCell id="73" value="" style="edgeStyle=elbowEdgeStyle;elbow=horizontal;strokeWidth=2;rounded=0" parent="1" source="29" target="30" edge="1">
          <mxGeometry x="-23" y="135.5" width="100" height="100" as="geometry">
            <mxPoint x="-23" y="235.5" as="sourcePoint" />
            <mxPoint x="77" y="135.5" as="targetPoint" />
            <Array as="points">
              <mxPoint x="567" y="535.5" />
            </Array>
          </mxGeometry>
        </mxCell>
        <mxCell id="76" value="" style="edgeStyle=elbowEdgeStyle;elbow=horizontal;strokeWidth=2;rounded=0" parent="1" source="33" target="34" edge="1">
          <mxGeometry x="-23" y="135.5" width="100" height="100" as="geometry">
            <mxPoint x="-23" y="235.5" as="sourcePoint" />
            <mxPoint x="77" y="135.5" as="targetPoint" />
            <Array as="points">
              <mxPoint x="747" y="535.5" />
            </Array>
          </mxGeometry>
        </mxCell>
        <mxCell id="77" value="" style="edgeStyle=elbowEdgeStyle;elbow=horizontal;strokeWidth=2;rounded=0" parent="1" source="33" target="35" edge="1">
          <mxGeometry x="-23" y="135.5" width="100" height="100" as="geometry">
            <mxPoint x="-23" y="235.5" as="sourcePoint" />
            <mxPoint x="77" y="135.5" as="targetPoint" />
            <Array as="points">
              <mxPoint x="747" y="575.5" />
            </Array>
          </mxGeometry>
        </mxCell>
        <mxCell id="78" value="" style="edgeStyle=elbowEdgeStyle;elbow=horizontal;strokeWidth=2;rounded=0" parent="1" source="33" target="36" edge="1">
          <mxGeometry x="-23" y="135.5" width="100" height="100" as="geometry">
            <mxPoint x="-23" y="235.5" as="sourcePoint" />
            <mxPoint x="77" y="135.5" as="targetPoint" />
            <Array as="points">
              <mxPoint x="747" y="625.5" />
            </Array>
          </mxGeometry>
        </mxCell>
        <mxCell id="79" value="" style="edgeStyle=elbowEdgeStyle;elbow=horizontal;strokeWidth=2;rounded=0;exitX=0.417;exitY=0.901;exitDx=0;exitDy=0;exitPerimeter=0;" parent="1" source="FViWfTOcx87JYwKs6K8M-128" target="37" edge="1">
          <mxGeometry x="-23" y="135.5" width="100" height="100" as="geometry">
            <mxPoint x="910" y="523" as="sourcePoint" />
            <mxPoint x="77" y="135.5" as="targetPoint" />
            <Array as="points">
              <mxPoint x="900" y="540" />
            </Array>
          </mxGeometry>
        </mxCell>
        <mxCell id="81" value="" style="edgeStyle=elbowEdgeStyle;elbow=horizontal;strokeWidth=2;rounded=0;exitX=0;exitY=0.75;exitDx=0;exitDy=0;" parent="1" source="37" target="39" edge="1">
          <mxGeometry x="-23" y="135.5" width="100" height="100" as="geometry">
            <mxPoint x="-23" y="235.5" as="sourcePoint" />
            <mxPoint x="77" y="135.5" as="targetPoint" />
            <Array as="points">
              <mxPoint x="900" y="670" />
            </Array>
          </mxGeometry>
        </mxCell>
        <mxCell id="100" value="" style="edgeStyle=elbowEdgeStyle;elbow=vertical;strokeWidth=2;rounded=0" parent="1" source="12" target="25" edge="1">
          <mxGeometry x="-23" y="135.5" width="100" height="100" as="geometry">
            <mxPoint x="-23" y="235.5" as="sourcePoint" />
            <mxPoint x="77" y="135.5" as="targetPoint" />
          </mxGeometry>
        </mxCell>
        <mxCell id="101" value="" style="edgeStyle=elbowEdgeStyle;elbow=vertical;strokeWidth=2;rounded=0" parent="1" source="12" target="29" edge="1">
          <mxGeometry x="-23" y="135.5" width="100" height="100" as="geometry">
            <mxPoint x="-23" y="235.5" as="sourcePoint" />
            <mxPoint x="77" y="135.5" as="targetPoint" />
          </mxGeometry>
        </mxCell>
        <mxCell id="102" value="" style="edgeStyle=elbowEdgeStyle;elbow=vertical;strokeWidth=2;rounded=0;exitX=0.5;exitY=1;exitDx=0;exitDy=0;" parent="1" source="12" target="FViWfTOcx87JYwKs6K8M-129" edge="1">
          <mxGeometry x="-23" y="135.5" width="100" height="100" as="geometry">
            <mxPoint x="-23" y="235.5" as="sourcePoint" />
            <mxPoint x="1120" y="450" as="targetPoint" />
            <Array as="points">
              <mxPoint x="910" y="440" />
              <mxPoint x="1000" y="430" />
              <mxPoint x="1080" y="440" />
              <mxPoint x="1120" y="436" />
            </Array>
          </mxGeometry>
        </mxCell>
        <mxCell id="104" value="" style="edgeStyle=elbowEdgeStyle;elbow=vertical;strokeWidth=2;rounded=0" parent="1" source="4" target="48" edge="1">
          <mxGeometry x="-23" y="135.5" width="100" height="100" as="geometry">
            <mxPoint x="-23" y="235.5" as="sourcePoint" />
            <mxPoint x="77" y="135.5" as="targetPoint" />
          </mxGeometry>
        </mxCell>
        <mxCell id="105" value="" style="edgeStyle=elbowEdgeStyle;elbow=vertical;strokeWidth=2;rounded=0" parent="1" source="4" target="44" edge="1">
          <mxGeometry x="-23" y="135.5" width="100" height="100" as="geometry">
            <mxPoint x="-23" y="235.5" as="sourcePoint" />
            <mxPoint x="77" y="135.5" as="targetPoint" />
          </mxGeometry>
        </mxCell>
        <mxCell id="106" value="" style="edgeStyle=elbowEdgeStyle;elbow=vertical;strokeWidth=2;rounded=0" parent="1" source="4" target="52" edge="1">
          <mxGeometry x="-23" y="135.5" width="100" height="100" as="geometry">
            <mxPoint x="-23" y="235.5" as="sourcePoint" />
            <mxPoint x="77" y="135.5" as="targetPoint" />
          </mxGeometry>
        </mxCell>
        <mxCell id="FViWfTOcx87JYwKs6K8M-128" value="&lt;font color=&quot;#ffffff&quot; size=&quot;1&quot;&gt;&lt;b style=&quot;font-size: 14px&quot;&gt;SERVICE DESK&lt;/b&gt;&lt;/font&gt;" style="rounded=1;whiteSpace=wrap;html=1;fillColor=#23445D;fontFamily=Tahoma;" vertex="1" parent="1">
          <mxGeometry x="910" y="460" width="120" height="55.5" as="geometry" />
        </mxCell>
        <mxCell id="FViWfTOcx87JYwKs6K8M-129" value="&lt;font color=&quot;#ffffff&quot; size=&quot;1&quot;&gt;&lt;b style=&quot;font-size: 15px&quot;&gt;SDWAN&lt;/b&gt;&lt;/font&gt;" style="rounded=1;whiteSpace=wrap;html=1;fillColor=#23445D;fontFamily=Tahoma;" vertex="1" parent="1">
          <mxGeometry x="1040" y="455.5" width="120" height="60" as="geometry" />
        </mxCell>
        <mxCell id="FViWfTOcx87JYwKs6K8M-135" value="" style="endArrow=classic;html=1;strokeColor=#000000;strokeWidth=2;fontFamily=Tahoma;" edge="1" parent="1">
          <mxGeometry width="50" height="50" relative="1" as="geometry">
            <mxPoint x="974" y="440" as="sourcePoint" />
            <mxPoint x="974" y="460" as="targetPoint" />
          </mxGeometry>
        </mxCell>
        <mxCell id="FViWfTOcx87JYwKs6K8M-139" value="" style="endArrow=classic;html=1;strokeColor=#000000;strokeWidth=2;fontFamily=Tahoma;" edge="1" parent="1" target="31">
          <mxGeometry width="50" height="50" relative="1" as="geometry">
            <mxPoint x="540" y="590" as="sourcePoint" />
            <mxPoint x="540" y="605.5" as="targetPoint" />
            <Array as="points">
              <mxPoint x="540" y="630" />
              <mxPoint x="540" y="665" />
            </Array>
          </mxGeometry>
        </mxCell>
        <mxCell id="FViWfTOcx87JYwKs6K8M-142" value="" style="endArrow=none;html=1;strokeColor=#000000;strokeWidth=2;fontFamily=Tahoma;" edge="1" parent="1">
          <mxGeometry width="50" height="50" relative="1" as="geometry">
            <mxPoint x="540" y="590" as="sourcePoint" />
            <mxPoint x="590" y="590" as="targetPoint" />
          </mxGeometry>
        </mxCell>
        <mxCell id="FViWfTOcx87JYwKs6K8M-143" value="" style="endArrow=none;html=1;strokeColor=#000000;strokeWidth=2;fontFamily=Tahoma;" edge="1" parent="1">
          <mxGeometry width="50" height="50" relative="1" as="geometry">
            <mxPoint x="540" y="760" as="sourcePoint" />
            <mxPoint x="540" y="660" as="targetPoint" />
          </mxGeometry>
        </mxCell>
        <mxCell id="FViWfTOcx87JYwKs6K8M-144" value="" style="endArrow=classic;html=1;strokeColor=#000000;strokeWidth=2;fontFamily=Tahoma;entryX=0;entryY=0.5;entryDx=0;entryDy=0;" edge="1" parent="1" target="32">
          <mxGeometry width="50" height="50" relative="1" as="geometry">
            <mxPoint x="540" y="756" as="sourcePoint" />
            <mxPoint x="592" y="700" as="targetPoint" />
          </mxGeometry>
        </mxCell>
        <mxCell id="FViWfTOcx87JYwKs6K8M-146" value="" style="endArrow=classic;html=1;strokeColor=#000000;strokeWidth=2;fontFamily=Tahoma;" edge="1" parent="1">
          <mxGeometry width="50" height="50" relative="1" as="geometry">
            <mxPoint x="900" y="670" as="sourcePoint" />
            <mxPoint x="920" y="670" as="targetPoint" />
          </mxGeometry>
        </mxCell>
        <mxCell id="FViWfTOcx87JYwKs6K8M-147" value="Dashboard" style="rounded=1;fillColor=#23445D;gradientColor=none;strokeColor=none;fontColor=#FFFFFF;fontStyle=1;fontFamily=Tahoma;fontSize=14" vertex="1" parent="1">
          <mxGeometry x="1060" y="635.5" width="130" height="60" as="geometry" />
        </mxCell>
        <mxCell id="FViWfTOcx87JYwKs6K8M-148" value="Thanh Menu" style="rounded=1;fillColor=#23445D;gradientColor=none;strokeColor=none;fontColor=#FFFFFF;fontStyle=1;fontFamily=Tahoma;fontSize=14" vertex="1" parent="1">
          <mxGeometry x="1060" y="720" width="130" height="60" as="geometry" />
        </mxCell>
        <mxCell id="FViWfTOcx87JYwKs6K8M-149" value="CISCO SDWAN" style="rounded=1;fillColor=#23445D;gradientColor=none;strokeColor=none;fontColor=#FFFFFF;fontStyle=1;fontFamily=Tahoma;fontSize=14" vertex="1" parent="1">
          <mxGeometry x="1060" y="545.5" width="130" height="60" as="geometry" />
        </mxCell>
        <mxCell id="FViWfTOcx87JYwKs6K8M-150" value="" style="endArrow=classic;html=1;strokeColor=#000000;strokeWidth=2;fontFamily=Tahoma;entryX=0.323;entryY=0.025;entryDx=0;entryDy=0;entryPerimeter=0;" edge="1" parent="1" source="FViWfTOcx87JYwKs6K8M-129" target="FViWfTOcx87JYwKs6K8M-149">
          <mxGeometry width="50" height="50" relative="1" as="geometry">
            <mxPoint x="1090" y="550" as="sourcePoint" />
            <mxPoint x="1140" y="500" as="targetPoint" />
          </mxGeometry>
        </mxCell>
        <mxCell id="FViWfTOcx87JYwKs6K8M-153" value="" style="endArrow=classic;html=1;strokeColor=#000000;strokeWidth=2;fontFamily=Tahoma;exitX=1;exitY=0.575;exitDx=0;exitDy=0;entryX=1;entryY=0.25;entryDx=0;entryDy=0;exitPerimeter=0;" edge="1" parent="1" source="FViWfTOcx87JYwKs6K8M-149" target="FViWfTOcx87JYwKs6K8M-147">
          <mxGeometry width="50" height="50" relative="1" as="geometry">
            <mxPoint x="840" y="620" as="sourcePoint" />
            <mxPoint x="1220" y="610" as="targetPoint" />
            <Array as="points">
              <mxPoint x="1240" y="580" />
              <mxPoint x="1240" y="651" />
            </Array>
          </mxGeometry>
        </mxCell>
        <mxCell id="FViWfTOcx87JYwKs6K8M-160" value="" style="endArrow=classic;html=1;strokeColor=#000000;strokeWidth=2;fontFamily=Tahoma;entryX=1.018;entryY=0.637;entryDx=0;entryDy=0;entryPerimeter=0;" edge="1" parent="1" target="FViWfTOcx87JYwKs6K8M-148">
          <mxGeometry width="50" height="50" relative="1" as="geometry">
            <mxPoint x="1240" y="606" as="sourcePoint" />
            <mxPoint x="1210" y="760" as="targetPoint" />
            <Array as="points">
              <mxPoint x="1240" y="758" />
            </Array>
          </mxGeometry>
        </mxCell>
      </root>
    </mxGraphModel>
  </diagram>
</mxfile>
